<mxfile host="app.diagrams.net" agent="Mozilla/5.0 (Windows NT 10.0; Win64; x64) AppleWebKit/537.36 (KHTML, like Gecko) Chrome/136.0.0.0 Safari/537.36 Edg/136.0.0.0" version="26.2.14">
  <diagram name="第 1 页" id="FjJBCUENaQ4CZFZM256z">
    <mxGraphModel dx="1736" dy="329" grid="1" gridSize="10" guides="1" tooltips="1" connect="1" arrows="1" fold="1" page="1" pageScale="1" pageWidth="1200" pageHeight="1920" math="0" shadow="0">
      <root>
        <mxCell id="0" />
        <mxCell id="1" parent="0" />
        <mxCell id="GaT-GBiJNjaNYy9AYpSU-58" value="" style="rounded=1;whiteSpace=wrap;html=1;dashed=1;" vertex="1" parent="1">
          <mxGeometry x="10" y="500" width="350" height="90" as="geometry" />
        </mxCell>
        <mxCell id="GaT-GBiJNjaNYy9AYpSU-56" value="" style="rounded=1;whiteSpace=wrap;html=1;fillColor=#f5f5f5;fontColor=#333333;strokeColor=none;opacity=70;" vertex="1" parent="1">
          <mxGeometry x="220" y="350" width="200" height="140" as="geometry" />
        </mxCell>
        <mxCell id="GaT-GBiJNjaNYy9AYpSU-55" value="" style="rounded=1;whiteSpace=wrap;html=1;fillColor=#f5f5f5;fontColor=#333333;strokeColor=none;opacity=70;" vertex="1" parent="1">
          <mxGeometry x="10" y="350" width="200" height="140" as="geometry" />
        </mxCell>
        <mxCell id="GaT-GBiJNjaNYy9AYpSU-27" style="edgeStyle=orthogonalEdgeStyle;rounded=0;orthogonalLoop=1;jettySize=auto;html=1;exitX=0.5;exitY=0;exitDx=0;exitDy=0;entryX=0.5;entryY=1;entryDx=0;entryDy=0;" edge="1" parent="1" source="GaT-GBiJNjaNYy9AYpSU-1" target="GaT-GBiJNjaNYy9AYpSU-2">
          <mxGeometry relative="1" as="geometry" />
        </mxCell>
        <mxCell id="GaT-GBiJNjaNYy9AYpSU-1" value="LN" style="rounded=0;whiteSpace=wrap;html=1;fillColor=#dae8fc;strokeColor=#6c8ebf;flipH=0;flipV=0;direction=south;" vertex="1" parent="1">
          <mxGeometry x="50" y="390" width="30" height="70" as="geometry" />
        </mxCell>
        <mxCell id="GaT-GBiJNjaNYy9AYpSU-33" style="edgeStyle=orthogonalEdgeStyle;rounded=0;orthogonalLoop=1;jettySize=auto;html=1;exitX=0.5;exitY=0;exitDx=0;exitDy=0;" edge="1" parent="1" source="GaT-GBiJNjaNYy9AYpSU-2">
          <mxGeometry relative="1" as="geometry">
            <mxPoint x="180" y="425" as="targetPoint" />
          </mxGeometry>
        </mxCell>
        <mxCell id="GaT-GBiJNjaNYy9AYpSU-2" value="AUSS2D&lt;br&gt;&lt;div&gt;Block&lt;/div&gt;" style="rounded=0;whiteSpace=wrap;html=1;fillColor=#fff2cc;strokeColor=#d6b656;direction=south;" vertex="1" parent="1">
          <mxGeometry x="100" y="390" width="55" height="70" as="geometry" />
        </mxCell>
        <mxCell id="GaT-GBiJNjaNYy9AYpSU-48" style="edgeStyle=orthogonalEdgeStyle;rounded=0;orthogonalLoop=1;jettySize=auto;html=1;exitX=0.5;exitY=0;exitDx=0;exitDy=0;entryX=0.5;entryY=1;entryDx=0;entryDy=0;" edge="1" parent="1" source="GaT-GBiJNjaNYy9AYpSU-3" target="GaT-GBiJNjaNYy9AYpSU-42">
          <mxGeometry relative="1" as="geometry" />
        </mxCell>
        <mxCell id="GaT-GBiJNjaNYy9AYpSU-3" value="linear" style="rounded=0;whiteSpace=wrap;html=1;fillColor=#dae8fc;strokeColor=#6c8ebf;direction=south;textDirection=vertical-rl;flipH=1;flipV=0;verticalAlign=middle;align=center;horizontal=1;fontSize=12;" vertex="1" parent="1">
          <mxGeometry x="25" y="510" width="30" height="70" as="geometry" />
        </mxCell>
        <mxCell id="GaT-GBiJNjaNYy9AYpSU-37" style="edgeStyle=orthogonalEdgeStyle;rounded=0;orthogonalLoop=1;jettySize=auto;html=1;exitX=0.5;exitY=0;exitDx=0;exitDy=0;" edge="1" parent="1" source="GaT-GBiJNjaNYy9AYpSU-4">
          <mxGeometry relative="1" as="geometry">
            <mxPoint x="390" y="425" as="targetPoint" />
          </mxGeometry>
        </mxCell>
        <mxCell id="GaT-GBiJNjaNYy9AYpSU-4" value="FFN" style="rounded=0;whiteSpace=wrap;html=1;fillColor=#fff2cc;strokeColor=#d6b656;direction=south;" vertex="1" parent="1">
          <mxGeometry x="340" y="390" width="30" height="70" as="geometry" />
        </mxCell>
        <mxCell id="GaT-GBiJNjaNYy9AYpSU-30" style="edgeStyle=orthogonalEdgeStyle;rounded=0;orthogonalLoop=1;jettySize=auto;html=1;exitX=0.5;exitY=0;exitDx=0;exitDy=0;entryX=0.5;entryY=1;entryDx=0;entryDy=0;" edge="1" parent="1" source="GaT-GBiJNjaNYy9AYpSU-5" target="GaT-GBiJNjaNYy9AYpSU-4">
          <mxGeometry relative="1" as="geometry" />
        </mxCell>
        <mxCell id="GaT-GBiJNjaNYy9AYpSU-5" value="LN" style="rounded=0;whiteSpace=wrap;html=1;fillColor=#dae8fc;strokeColor=#6c8ebf;direction=south;" vertex="1" parent="1">
          <mxGeometry x="290" y="390" width="30" height="70" as="geometry" />
        </mxCell>
        <mxCell id="GaT-GBiJNjaNYy9AYpSU-19" value="" style="group" vertex="1" connectable="0" parent="1">
          <mxGeometry x="180" y="415" width="20" height="20" as="geometry" />
        </mxCell>
        <mxCell id="GaT-GBiJNjaNYy9AYpSU-6" value="" style="ellipse;whiteSpace=wrap;html=1;aspect=fixed;" vertex="1" parent="GaT-GBiJNjaNYy9AYpSU-19">
          <mxGeometry width="20" height="20" as="geometry" />
        </mxCell>
        <mxCell id="GaT-GBiJNjaNYy9AYpSU-8" value="" style="endArrow=none;html=1;rounded=0;entryX=0;entryY=0.5;entryDx=0;entryDy=0;exitX=1;exitY=0.5;exitDx=0;exitDy=0;" edge="1" parent="GaT-GBiJNjaNYy9AYpSU-19" source="GaT-GBiJNjaNYy9AYpSU-6" target="GaT-GBiJNjaNYy9AYpSU-6">
          <mxGeometry width="50" height="50" relative="1" as="geometry">
            <mxPoint x="45" y="80" as="sourcePoint" />
            <mxPoint x="95" y="30" as="targetPoint" />
          </mxGeometry>
        </mxCell>
        <mxCell id="GaT-GBiJNjaNYy9AYpSU-9" value="" style="endArrow=none;html=1;rounded=0;entryX=0.5;entryY=0;entryDx=0;entryDy=0;exitX=0.5;exitY=1;exitDx=0;exitDy=0;" edge="1" parent="GaT-GBiJNjaNYy9AYpSU-19" source="GaT-GBiJNjaNYy9AYpSU-6" target="GaT-GBiJNjaNYy9AYpSU-6">
          <mxGeometry width="50" height="50" relative="1" as="geometry">
            <mxPoint x="45" y="80" as="sourcePoint" />
            <mxPoint x="95" y="30" as="targetPoint" />
          </mxGeometry>
        </mxCell>
        <mxCell id="GaT-GBiJNjaNYy9AYpSU-57" style="edgeStyle=orthogonalEdgeStyle;rounded=0;orthogonalLoop=1;jettySize=auto;html=1;exitX=1;exitY=0.5;exitDx=0;exitDy=0;" edge="1" parent="1" source="GaT-GBiJNjaNYy9AYpSU-24">
          <mxGeometry relative="1" as="geometry">
            <mxPoint x="430" y="425.28571428571433" as="targetPoint" />
          </mxGeometry>
        </mxCell>
        <mxCell id="GaT-GBiJNjaNYy9AYpSU-24" value="" style="ellipse;whiteSpace=wrap;html=1;aspect=fixed;" vertex="1" parent="1">
          <mxGeometry x="390" y="415" width="20" height="20" as="geometry" />
        </mxCell>
        <mxCell id="GaT-GBiJNjaNYy9AYpSU-25" value="" style="endArrow=none;html=1;rounded=0;entryX=0;entryY=0.5;entryDx=0;entryDy=0;exitX=1;exitY=0.5;exitDx=0;exitDy=0;" edge="1" parent="1" source="GaT-GBiJNjaNYy9AYpSU-24" target="GaT-GBiJNjaNYy9AYpSU-24">
          <mxGeometry width="50" height="50" relative="1" as="geometry">
            <mxPoint x="95" y="330" as="sourcePoint" />
            <mxPoint x="75" y="330" as="targetPoint" />
          </mxGeometry>
        </mxCell>
        <mxCell id="GaT-GBiJNjaNYy9AYpSU-26" value="" style="endArrow=none;html=1;rounded=0;entryX=0.5;entryY=0;entryDx=0;entryDy=0;exitX=0.5;exitY=1;exitDx=0;exitDy=0;" edge="1" parent="1" source="GaT-GBiJNjaNYy9AYpSU-24" target="GaT-GBiJNjaNYy9AYpSU-24">
          <mxGeometry width="50" height="50" relative="1" as="geometry">
            <mxPoint x="110" y="280" as="sourcePoint" />
            <mxPoint x="160" y="230" as="targetPoint" />
          </mxGeometry>
        </mxCell>
        <mxCell id="GaT-GBiJNjaNYy9AYpSU-34" style="edgeStyle=orthogonalEdgeStyle;rounded=0;orthogonalLoop=1;jettySize=auto;html=1;exitX=1;exitY=0.5;exitDx=0;exitDy=0;entryX=0.5;entryY=1;entryDx=0;entryDy=0;" edge="1" parent="1" source="GaT-GBiJNjaNYy9AYpSU-6" target="GaT-GBiJNjaNYy9AYpSU-5">
          <mxGeometry relative="1" as="geometry" />
        </mxCell>
        <mxCell id="GaT-GBiJNjaNYy9AYpSU-38" value="" style="endArrow=classic;html=1;rounded=0;entryX=0.5;entryY=1;entryDx=0;entryDy=0;" edge="1" parent="1" target="GaT-GBiJNjaNYy9AYpSU-1">
          <mxGeometry width="50" height="50" relative="1" as="geometry">
            <mxPoint y="425" as="sourcePoint" />
            <mxPoint x="140" y="520" as="targetPoint" />
          </mxGeometry>
        </mxCell>
        <mxCell id="GaT-GBiJNjaNYy9AYpSU-39" value="" style="endArrow=classic;html=1;rounded=0;" edge="1" parent="1">
          <mxGeometry width="50" height="50" relative="1" as="geometry">
            <mxPoint x="25" y="425" as="sourcePoint" />
            <mxPoint x="190" y="415" as="targetPoint" />
            <Array as="points">
              <mxPoint x="25" y="360" />
              <mxPoint x="190" y="360" />
            </Array>
          </mxGeometry>
        </mxCell>
        <mxCell id="GaT-GBiJNjaNYy9AYpSU-41" value="" style="endArrow=classic;html=1;rounded=0;" edge="1" parent="1">
          <mxGeometry width="50" height="50" relative="1" as="geometry">
            <mxPoint x="235" y="425" as="sourcePoint" />
            <mxPoint x="400" y="415" as="targetPoint" />
            <Array as="points">
              <mxPoint x="235" y="360" />
              <mxPoint x="400" y="360" />
            </Array>
          </mxGeometry>
        </mxCell>
        <mxCell id="GaT-GBiJNjaNYy9AYpSU-49" style="edgeStyle=orthogonalEdgeStyle;rounded=0;orthogonalLoop=1;jettySize=auto;html=1;exitX=0.5;exitY=0;exitDx=0;exitDy=0;entryX=0.5;entryY=1;entryDx=0;entryDy=0;" edge="1" parent="1" source="GaT-GBiJNjaNYy9AYpSU-42" target="GaT-GBiJNjaNYy9AYpSU-43">
          <mxGeometry relative="1" as="geometry" />
        </mxCell>
        <mxCell id="GaT-GBiJNjaNYy9AYpSU-42" value="DWConv" style="rounded=0;whiteSpace=wrap;html=1;fillColor=#dae8fc;strokeColor=#6c8ebf;direction=south;textDirection=vertical-rl;" vertex="1" parent="1">
          <mxGeometry x="75" y="510" width="30" height="70" as="geometry" />
        </mxCell>
        <mxCell id="GaT-GBiJNjaNYy9AYpSU-50" style="edgeStyle=orthogonalEdgeStyle;rounded=0;orthogonalLoop=1;jettySize=auto;html=1;exitX=0.5;exitY=0;exitDx=0;exitDy=0;entryX=0.5;entryY=1;entryDx=0;entryDy=0;" edge="1" parent="1" source="GaT-GBiJNjaNYy9AYpSU-43" target="GaT-GBiJNjaNYy9AYpSU-44">
          <mxGeometry relative="1" as="geometry" />
        </mxCell>
        <mxCell id="GaT-GBiJNjaNYy9AYpSU-43" value="SiLU" style="rounded=0;whiteSpace=wrap;html=1;fillColor=#dae8fc;strokeColor=#6c8ebf;direction=south;textDirection=vertical-rl;" vertex="1" parent="1">
          <mxGeometry x="130" y="510" width="30" height="70" as="geometry" />
        </mxCell>
        <mxCell id="GaT-GBiJNjaNYy9AYpSU-51" style="edgeStyle=orthogonalEdgeStyle;rounded=0;orthogonalLoop=1;jettySize=auto;html=1;exitX=0.5;exitY=0;exitDx=0;exitDy=0;entryX=0.5;entryY=1;entryDx=0;entryDy=0;" edge="1" parent="1" source="GaT-GBiJNjaNYy9AYpSU-44" target="GaT-GBiJNjaNYy9AYpSU-45">
          <mxGeometry relative="1" as="geometry" />
        </mxCell>
        <mxCell id="GaT-GBiJNjaNYy9AYpSU-44" value="AUSS2D" style="rounded=0;whiteSpace=wrap;html=1;fillColor=#FFF2CC;strokeColor=#d6b656;direction=south;textDirection=vertical-rl;" vertex="1" parent="1">
          <mxGeometry x="195" y="510" width="30" height="70" as="geometry" />
        </mxCell>
        <mxCell id="GaT-GBiJNjaNYy9AYpSU-52" style="edgeStyle=orthogonalEdgeStyle;rounded=0;orthogonalLoop=1;jettySize=auto;html=1;exitX=0.5;exitY=0;exitDx=0;exitDy=0;entryX=0.5;entryY=1;entryDx=0;entryDy=0;" edge="1" parent="1" source="GaT-GBiJNjaNYy9AYpSU-45" target="GaT-GBiJNjaNYy9AYpSU-46">
          <mxGeometry relative="1" as="geometry" />
        </mxCell>
        <mxCell id="GaT-GBiJNjaNYy9AYpSU-45" value="LN" style="rounded=0;whiteSpace=wrap;html=1;fillColor=#dae8fc;strokeColor=#6c8ebf;direction=south;textDirection=vertical-rl;" vertex="1" parent="1">
          <mxGeometry x="255" y="510" width="30" height="70" as="geometry" />
        </mxCell>
        <mxCell id="GaT-GBiJNjaNYy9AYpSU-53" style="edgeStyle=orthogonalEdgeStyle;rounded=0;orthogonalLoop=1;jettySize=auto;html=1;exitX=0.5;exitY=0;exitDx=0;exitDy=0;" edge="1" parent="1" source="GaT-GBiJNjaNYy9AYpSU-46">
          <mxGeometry relative="1" as="geometry">
            <mxPoint x="370" y="545" as="targetPoint" />
          </mxGeometry>
        </mxCell>
        <mxCell id="GaT-GBiJNjaNYy9AYpSU-46" value="linear" style="rounded=0;whiteSpace=wrap;html=1;fillColor=#dae8fc;strokeColor=#6c8ebf;direction=south;textDirection=vertical-rl;" vertex="1" parent="1">
          <mxGeometry x="305" y="510" width="30" height="70" as="geometry" />
        </mxCell>
        <mxCell id="GaT-GBiJNjaNYy9AYpSU-47" value="" style="endArrow=classic;html=1;rounded=0;entryX=0.5;entryY=1;entryDx=0;entryDy=0;" edge="1" parent="1" target="GaT-GBiJNjaNYy9AYpSU-3">
          <mxGeometry width="50" height="50" relative="1" as="geometry">
            <mxPoint y="545" as="sourcePoint" />
            <mxPoint x="240" y="450" as="targetPoint" />
          </mxGeometry>
        </mxCell>
        <mxCell id="GaT-GBiJNjaNYy9AYpSU-59" value="" style="endArrow=none;dashed=1;html=1;strokeWidth=1;rounded=0;entryX=1;entryY=1;entryDx=0;entryDy=0;exitX=0;exitY=0;exitDx=0;exitDy=0;curved=0;" edge="1" parent="1" source="GaT-GBiJNjaNYy9AYpSU-58" target="GaT-GBiJNjaNYy9AYpSU-2">
          <mxGeometry width="50" height="50" relative="1" as="geometry">
            <mxPoint x="190" y="500" as="sourcePoint" />
            <mxPoint x="240" y="450" as="targetPoint" />
          </mxGeometry>
        </mxCell>
        <mxCell id="GaT-GBiJNjaNYy9AYpSU-60" value="" style="endArrow=none;dashed=1;html=1;strokeWidth=1;rounded=0;exitX=1;exitY=0;exitDx=0;exitDy=0;curved=0;entryX=1;entryY=0;entryDx=0;entryDy=0;" edge="1" parent="1" source="GaT-GBiJNjaNYy9AYpSU-58" target="GaT-GBiJNjaNYy9AYpSU-2">
          <mxGeometry width="50" height="50" relative="1" as="geometry">
            <mxPoint x="20" y="510" as="sourcePoint" />
            <mxPoint x="110" y="470" as="targetPoint" />
          </mxGeometry>
        </mxCell>
      </root>
    </mxGraphModel>
  </diagram>
</mxfile>
